<svg width="70" height="56" viewBox="0 0 70 56" fill="none" xmlns="http://www.w3.org/2000/svg">
<path d="M21 28C27.7703 28 33.25 22.5203 33.25 15.75C33.25 8.97969 27.7703 3.5 21 3.5C14.2297 3.5 8.75 8.97969 8.75 15.75C8.75 22.5203 14.2297 28 21 28ZM29.4 31.5H28.4922C26.2172 32.5938 23.6906 33.25 21 33.25C18.3094 33.25 15.7937 32.5938 13.5078 31.5H12.6C5.64375 31.5 0 37.1438 0 44.1V47.25C0 50.1484 2.35156 52.5 5.25 52.5H36.75C39.6484 52.5 42 50.1484 42 47.25V44.1C42 37.1438 36.3562 31.5 29.4 31.5ZM52.5 28C58.2969 28 63 23.2969 63 17.5C63 11.7031 58.2969 7 52.5 7C46.7031 7 42 11.7031 42 17.5C42 23.2969 46.7031 28 52.5 28ZM57.75 31.5H57.3344C55.8141 32.025 54.2062 32.375 52.5 32.375C50.7938 32.375 49.1859 32.025 47.6656 31.5H47.25C45.0187 31.5 42.9625 32.1453 41.1578 33.1844C43.8266 36.0609 45.5 39.8781 45.5 44.1V48.3C45.5 48.5406 45.4453 48.7703 45.4344 49H64.75C67.6484 49 70 46.6484 70 43.75C70 36.9797 64.5203 31.5 57.75 31.5Z" fill="#0081AB"/>
</svg>
