<svg width="32" height="32" viewBox="0 0 32 32" fill="none" xmlns="http://www.w3.org/2000/svg">
<g clip-path="url(#clip0_42_57)">
<path d="M2.66667 0C1.19444 0 0 1.34375 0 3V16H8C8.48889 16 8.88889 16.45 8.88889 17C8.88889 17.55 8.48889 18 8 18H0V22H8C8.48889 22 8.88889 22.45 8.88889 23C8.88889 23.55 8.48889 24 8 24H0V29C0 30.6562 1.19444 32 2.66667 32H14.7722C14.4222 31.3625 14.2222 30.6125 14.2222 29.8062C14.2222 26.875 15.6556 24.3188 17.7778 22.9813V3C17.7778 1.34375 16.5833 0 15.1111 0H2.66667ZM8.44444 4H9.33333C9.82222 4 10.2222 4.45 10.2222 5V6.5H11.5556C12.0444 6.5 12.4444 6.95 12.4444 7.5V8.5C12.4444 9.05 12.0444 9.5 11.5556 9.5H10.2222V11C10.2222 11.55 9.82222 12 9.33333 12H8.44444C7.95556 12 7.55556 11.55 7.55556 11V9.5H6.22222C5.73333 9.5 5.33333 9.05 5.33333 8.5V7.5C5.33333 6.95 5.73333 6.5 6.22222 6.5H7.55556V5C7.55556 4.45 7.95556 4 8.44444 4ZM28.4444 17C28.4444 15.6739 27.9762 14.4021 27.1427 13.4645C26.3092 12.5268 25.1787 12 24 12C22.8213 12 21.6908 12.5268 20.8573 13.4645C20.0238 14.4021 19.5556 15.6739 19.5556 17C19.5556 18.3261 20.0238 19.5979 20.8573 20.5355C21.6908 21.4732 22.8213 22 24 22C25.1787 22 26.3092 21.4732 27.1427 20.5355C27.9762 19.5979 28.4444 18.3261 28.4444 17ZM16 29.8188C16 31.025 16.8667 32 17.9389 32H30.0611C31.1333 32 32 31.025 32 29.8188C32 26.6063 29.6833 24 26.8278 24H21.1722C18.3167 24 16 26.6063 16 29.8188Z" fill="white"/>
</g>
<defs>
<clipPath id="clip0_42_57">
<rect width="32" height="32" fill="white"/>
</clipPath>
</defs>
</svg>
