<svg width="32" height="33" viewBox="0 0 32 33" fill="none" xmlns="http://www.w3.org/2000/svg">
<path d="M7.004 19.1667L21.656 19.168C21.7947 19.3973 21.9627 19.6093 22.1627 19.7987L23.1213 20.708C22.9971 21.1774 22.8087 21.6275 22.5613 22.0453C22.3105 22.4813 22.0024 22.8817 21.6453 23.236L20.5867 22.8827C19.9796 22.6828 19.3237 22.6877 18.7196 22.8965C18.1156 23.1053 17.5967 23.5066 17.2427 24.0387L16.2813 25.452C15.8746 26.0532 15.6883 26.7766 15.7539 27.4995C15.8195 28.2225 16.133 28.9005 16.6413 29.4187L16.944 29.7227C16.2213 29.7973 15.464 29.8347 14.6667 29.8347C10.8133 29.8347 7.82933 28.96 5.74533 27.168C5.19911 26.6986 4.76073 26.1168 4.46019 25.4623C4.15964 24.8079 4.00403 24.0962 4.004 23.376V22.1667C4.004 21.7727 4.0816 21.3826 4.23236 21.0186C4.38312 20.6546 4.6041 20.3239 4.88268 20.0454C5.16125 19.7668 5.49197 19.5458 5.85595 19.395C6.21992 19.2443 6.61003 19.1667 7.004 19.1667ZM23.352 15.244C23.6667 14.5027 24.42 14.0987 25.16 14.2533L25.3173 14.2933L26.1573 14.5627C26.9907 14.8293 27.6293 15.5427 27.836 16.4387C28.3253 18.5693 27.7373 21.1627 26.0733 24.22C24.4107 27.2733 22.588 29.108 20.6067 29.7267C20.2283 29.8439 19.8264 29.8634 19.4385 29.7835C19.0506 29.7035 18.6892 29.5266 18.388 29.2693L18.224 29.1187L17.5853 28.4787C17.3168 28.2022 17.1434 27.8474 17.0902 27.4657C17.037 27.0841 17.1067 26.6954 17.2893 26.356L17.384 26.2013L18.3453 24.788C18.724 24.232 19.372 23.9693 19.996 24.1013L20.1653 24.148L21.9413 24.74C22.662 24.1903 23.265 23.5016 23.7147 22.7147C24.1035 22.0609 24.3726 21.343 24.5093 20.5947L24.56 20.2347L23.0813 18.832C22.8425 18.5994 22.6728 18.3053 22.5909 17.9822C22.509 17.6591 22.5181 17.3196 22.6173 17.0013L22.68 16.828L23.352 15.244ZM14.6667 3.17334C15.5421 3.17334 16.409 3.34578 17.2179 3.68081C18.0267 4.01584 18.7617 4.5069 19.3807 5.12596C19.9998 5.74502 20.4908 6.47995 20.8259 7.28878C21.1609 8.09762 21.3333 8.96453 21.3333 9.84001C21.3333 10.7155 21.1609 11.5824 20.8259 12.3912C20.4908 13.2001 19.9998 13.935 19.3807 14.5541C18.7617 15.1731 18.0267 15.6642 17.2179 15.9992C16.409 16.3342 15.5421 16.5067 14.6667 16.5067C12.8986 16.5067 11.2029 15.8043 9.95262 14.5541C8.70238 13.3038 8 11.6081 8 9.84001C8 8.0719 8.70238 6.3762 9.95262 5.12596C11.2029 3.87572 12.8986 3.17334 14.6667 3.17334Z" fill="white"/>
</svg>
