<svg width="57" height="66" viewBox="0 0 57 66" fill="none" xmlns="http://www.w3.org/2000/svg">
<g clip-path="url(#clip0_42_50)">
<path d="M17.7243 22.2696L18.1043 22.2366C18.2419 22.2212 18.3734 22.1711 18.487 22.0909L18.4843 22.0936C18.848 23.3641 19.2931 24.7006 19.8496 26.1004C20.5634 27.9319 21.2664 29.4361 22.0536 30.8881L21.945 30.6681C21.8798 31.6691 21.8011 32.6976 21.698 33.6931C21.6528 34.2804 21.5352 34.8597 21.3478 35.4174L21.3614 35.3679C21.3288 35.3816 21.2827 41.0879 21.2827 41.0879C21.2837 42.8584 21.8727 44.5771 22.9549 45.9674C24.0371 47.3576 25.5495 48.3385 27.2487 48.7521L27.303 48.7631C27.3784 48.5646 27.5113 48.3938 27.6842 48.273C27.8571 48.1523 28.062 48.0873 28.272 48.0866H29.83C30.038 48.0894 30.2407 48.1543 30.4125 48.2732C30.5844 48.392 30.7179 48.5596 30.7963 48.7549L30.799 48.7631C32.5126 48.3618 34.0423 47.3861 35.1404 45.9941C36.2384 44.6021 36.8405 42.8753 36.8491 41.0934C36.8491 41.0934 36.7541 35.4091 36.7053 35.3706C36.5435 34.839 36.4326 34.2929 36.3741 33.7399L36.3714 33.6986C36.2764 32.6976 36.214 31.6939 36.1244 30.6736C36.7948 29.4471 37.4978 27.9456 38.1167 26.3974L38.2198 26.1059C38.7763 24.7061 39.2078 23.3724 39.5851 22.0991C39.6966 22.1793 39.8265 22.2295 39.9624 22.2449H39.9651L40.3478 22.2779C40.8093 22.3274 41.2164 21.9424 41.2544 21.3456L41.667 16.0354V16.0299C41.6667 15.8162 41.5898 15.6099 41.4504 15.4494C41.3111 15.289 41.1189 15.1855 40.9097 15.1581H40.8581C41.2196 12.3929 40.9957 9.5815 40.2013 6.91085L40.2366 7.0511C39.471 5.32883 38.3066 3.81909 36.8422 2.65001C35.3779 1.48092 33.6568 0.686997 31.825 0.335602L31.7544 0.324602C30.8663 0.144196 29.9646 0.0411533 29.0591 0.0166016H29.0021C28.0549 0.0337866 27.1115 0.142445 26.1847 0.341102L26.2824 0.324602C24.4516 0.668904 22.7288 1.45254 21.2582 2.60991C19.7877 3.76728 18.6122 5.26471 17.8301 6.97685L17.8003 7.0511C17.0188 9.71146 16.8105 12.5109 17.1896 15.2599L17.1787 15.1581C16.969 15.1811 16.775 15.2816 16.6337 15.4404C16.4925 15.5992 16.414 15.8051 16.4133 16.0189V16.0381L16.8258 21.3484C16.8638 21.9589 17.2764 22.3274 17.7216 22.2779L17.7243 22.2696Z" fill="#0081AB"/>
<path d="M58.1291 57.4145C57.9391 49.0545 57.114 47.1625 56.6688 45.881C56.4924 45.3668 56.3485 41.8908 50.6811 39.6358C47.2068 38.2498 42.7228 38.2223 38.9283 36.597V41.118C38.9243 43.4358 38.1249 45.68 36.6671 47.4661C35.2092 49.2522 33.1836 50.469 30.9374 50.908L30.875 50.919C30.8343 51.163 30.7104 51.3847 30.5249 51.5455C30.3393 51.7063 30.104 51.7961 29.8598 51.799H29.811V55.209C29.811 56.8092 30.4384 58.3439 31.5552 59.4754C32.672 60.6069 34.1867 61.2425 35.7661 61.2425C37.3455 61.2425 38.8602 60.6069 39.977 59.4754C41.0938 58.3439 41.7213 56.8092 41.7213 55.209V52.8275C40.9015 52.7057 40.1543 52.2838 39.6208 51.6415C39.0874 50.9993 38.8048 50.1812 38.8265 49.3421C38.8482 48.5029 39.1726 47.701 39.7385 47.0878C40.3043 46.4747 41.0724 46.0929 41.8973 46.0148C42.7222 45.9366 43.5468 46.1674 44.215 46.6636C44.8833 47.1598 45.3489 47.8869 45.5238 48.7074C45.6987 49.5279 45.5708 50.3848 45.1642 51.1162C44.7576 51.8476 44.1005 52.4026 43.3173 52.6763L43.2928 52.6845V55.3383C43.2928 57.3615 42.4996 59.3018 41.0875 60.7325C39.6755 62.1631 37.7603 62.9668 35.7634 62.9668C33.7665 62.9668 31.8513 62.1631 30.4393 60.7325C29.0273 59.3018 28.234 57.3615 28.234 55.3383V55.2008V55.2063V51.766C28.0016 51.75 27.7813 51.6549 27.6089 51.4962C27.4364 51.3375 27.322 51.1244 27.284 50.8915V50.886C25.0353 50.4515 23.0057 49.2384 21.5429 47.4543C20.0802 45.6702 19.2752 43.4264 19.266 41.107V36.5503C15.4551 38.2085 10.944 38.2415 7.45069 39.6303C1.76698 41.8825 1.63669 45.3503 1.46298 45.8728C1.02869 47.1598 0.19269 49.0435 0.00268988 57.409C-0.0298816 58.509 0.00269003 60.1948 3.27612 61.6688C10.4038 64.5013 19.5863 65.3813 28.6384 66.0138H29.507C38.5781 65.3868 47.747 64.5095 54.8693 61.6688C58.1291 60.203 58.159 58.5255 58.1291 57.4145ZM18.2807 54.0045H14.8987V57.4448H12.483V54.0155H9.10098V51.568H12.483V48.1415H14.8987V51.568H18.2807V54.0045Z" fill="#0081AB"/>
<path d="M44.0393 49.4036C44.0389 48.9129 43.8462 48.4397 43.5035 48.0929C43.1609 47.7461 42.6963 47.5513 42.2119 47.5515C41.7275 47.5517 41.2631 47.7468 40.9207 48.0938C40.5782 48.4409 40.3859 48.9115 40.3859 49.4023C40.3859 49.893 40.5782 50.3636 40.9207 50.7107C41.2631 51.0578 41.7275 51.2528 42.2119 51.253C42.6963 51.2532 43.1609 51.0585 43.5035 50.7117C43.8462 50.3649 44.0389 49.8944 44.0393 49.4036Z" fill="#0081AB"/>
</g>
<defs>
<clipPath id="clip0_42_50">
<rect width="57" height="66" fill="white"/>
</clipPath>
</defs>
</svg>
