<svg width="102" height="18" viewBox="0 0 102 18" fill="none" xmlns="http://www.w3.org/2000/svg">
<path d="M16.5 9C16.5 4.86 13.14 1.5 9 1.5C4.86 1.5 1.5 4.86 1.5 9C1.5 12.63 4.08 15.6525 7.5 16.35V11.25H6V9H7.5V7.125C7.5 5.6775 8.6775 4.5 10.125 4.5H12V6.75H10.5C10.0875 6.75 9.75 7.0875 9.75 7.5V9H12V11.25H9.75V16.4625C13.5375 16.0875 16.5 12.8925 16.5 9Z" fill="white"/>
<path d="M37 1.125C32.6512 1.125 29.125 4.65117 29.125 9C29.125 13.3488 32.6512 16.875 37 16.875C41.3488 16.875 44.875 13.3488 44.875 9C44.875 4.65117 41.3488 1.125 37 1.125ZM40.7846 7.06113C40.7898 7.14375 40.7898 7.22988 40.7898 7.31426C40.7898 9.89473 38.8246 12.8672 35.2334 12.8672C34.126 12.8672 33.0994 12.5455 32.2346 11.9918C32.3928 12.0094 32.5439 12.0164 32.7057 12.0164C33.6197 12.0164 34.46 11.707 35.1297 11.1832C34.2719 11.1656 33.5512 10.6031 33.3051 9.82969C33.6057 9.87363 33.8764 9.87363 34.1857 9.79453C33.7441 9.70479 33.347 9.46491 33.0622 9.11563C32.7773 8.76636 32.6221 8.32923 32.623 7.87852V7.85391C32.8814 7.9998 33.1855 8.08945 33.5037 8.10176C33.2362 7.92351 33.0169 7.68201 32.8651 7.39869C32.7133 7.11536 32.6338 6.79896 32.6336 6.47754C32.6336 6.11367 32.7285 5.78145 32.899 5.49316C33.3893 6.09668 34.001 6.59029 34.6946 6.94189C35.3881 7.2935 36.1478 7.49523 36.9244 7.53398C36.6484 6.20684 37.6398 5.13281 38.8316 5.13281C39.3941 5.13281 39.9004 5.36836 40.2572 5.74805C40.6984 5.66543 41.1203 5.5002 41.4965 5.27871C41.3506 5.73047 41.0447 6.11191 40.6387 6.35273C41.0324 6.31055 41.4121 6.20156 41.7637 6.04863C41.4982 6.43887 41.166 6.78516 40.7846 7.06113Z" fill="white"/>
<g clip-path="url(#clip0_18_206)">
<path d="M65 0.359863C60.2282 0.359863 56.36 4.22806 56.36 8.99986C56.36 13.7717 60.2282 17.6399 65 17.6399C69.7718 17.6399 73.64 13.7717 73.64 8.99986C73.64 4.22806 69.7718 0.359863 65 0.359863ZM62.885 12.581H61.1354V6.95056H62.885V12.581ZM61.9994 6.25936C61.4468 6.25936 61.0895 5.86786 61.0895 5.38366C61.0895 4.88956 61.4576 4.50976 62.0219 4.50976C62.5862 4.50976 62.9318 4.88956 62.9426 5.38366C62.9426 5.86786 62.5862 6.25936 61.9994 6.25936ZM69.275 12.581H67.5254V9.46066C67.5254 8.73436 67.2716 8.24116 66.6389 8.24116C66.1556 8.24116 65.8685 8.57506 65.7416 8.89636C65.6948 9.01066 65.6831 9.17266 65.6831 9.33376V12.5801H63.9326V8.74606C63.9326 8.04316 63.9101 7.45546 63.8867 6.94966H65.4068L65.4869 7.73176H65.522C65.7524 7.36456 66.3167 6.82276 67.2608 6.82276C68.4119 6.82276 69.275 7.59406 69.275 9.25186V12.581Z" fill="white"/>
</g>
<g clip-path="url(#clip1_18_206)">
<path d="M93 6C92.2044 6 91.4413 6.31607 90.8787 6.87868C90.3161 7.44129 90 8.20435 90 9C90 9.79565 90.3161 10.5587 90.8787 11.1213C91.4413 11.6839 92.2044 12 93 12C93.7956 12 94.5587 11.6839 95.1213 11.1213C95.6839 10.5587 96 9.79565 96 9C96 8.20435 95.6839 7.44129 95.1213 6.87868C94.5587 6.31607 93.7956 6 93 6Z" fill="white"/>
<path fill-rule="evenodd" clip-rule="evenodd" d="M89.4 0C87.9678 0 86.5943 0.568927 85.5816 1.58162C84.5689 2.59432 84 3.96783 84 5.4V12.6C84 14.0322 84.5689 15.4057 85.5816 16.4184C86.5943 17.4311 87.9678 18 89.4 18H96.6C98.0322 18 99.4057 17.4311 100.418 16.4184C101.431 15.4057 102 14.0322 102 12.6V5.4C102 3.96783 101.431 2.59432 100.418 1.58162C99.4057 0.568927 98.0322 0 96.6 0L89.4 0ZM88.8 9C88.8 7.88609 89.2425 6.8178 90.0302 6.03015C90.8178 5.2425 91.8861 4.8 93 4.8C94.1139 4.8 95.1822 5.2425 95.9698 6.03015C96.7575 6.8178 97.2 7.88609 97.2 9C97.2 10.1139 96.7575 11.1822 95.9698 11.9698C95.1822 12.7575 94.1139 13.2 93 13.2C91.8861 13.2 90.8178 12.7575 90.0302 11.9698C89.2425 11.1822 88.8 10.1139 88.8 9ZM97.2 4.8H98.4V3.6H97.2V4.8Z" fill="white"/>
</g>
<defs>
<clipPath id="clip0_18_206">
<rect width="18" height="18" fill="white" transform="translate(56)"/>
</clipPath>
<clipPath id="clip1_18_206">
<rect width="18" height="18" fill="white" transform="translate(84)"/>
</clipPath>
</defs>
</svg>
