<svg width="60" height="60" viewBox="0 0 60 60" fill="none" xmlns="http://www.w3.org/2000/svg">
<path fill-rule="evenodd" clip-rule="evenodd" d="M20 40V52.5H40V40H52.5V20H40V7.5H20V20H7.5V40H20ZM33.125 20.6287H29.8375C29.7212 20.6232 29.6052 20.6433 29.4975 20.6875C28.4537 21.1962 27.7987 22.095 27.3975 23.16C27.3225 23.3562 27.2587 23.555 27.2025 23.7537H24.63C24.7325 23.27 24.8713 22.77 25.0588 22.2762C25.6113 20.8125 26.62 19.31 28.4013 18.44C28.8507 18.2286 29.3421 18.1217 29.8388 18.1275H33.1262C33.4578 18.1275 33.7757 18.2592 34.0101 18.4936C34.2446 18.728 34.3762 19.046 34.3762 19.3775C34.3762 19.709 34.2446 20.027 34.0101 20.2614C33.7757 20.4958 33.4578 20.6275 33.1262 20.6275L33.125 20.6287ZM22.5 25.0037C21.81 25.0037 21.2337 25.5737 21.4212 26.2387C22.1425 28.8125 25.0788 30.815 28.75 31.19V33.1375C27.8813 33.1588 26.9787 33.2288 26.2125 33.4513C25.615 33.6262 24.9813 33.9238 24.4963 34.4688C23.9888 35.0388 23.75 35.7588 23.75 36.5625C23.75 37.3662 23.9875 38.0875 24.495 38.6588C24.98 39.205 25.6137 39.505 26.2125 39.68C26.6125 39.7962 27.05 39.8713 27.5 39.9188V37.4025C27.3015 37.3756 27.1052 37.3346 26.9125 37.28C26.575 37.18 26.4262 37.07 26.365 37C26.325 36.955 26.25 36.8538 26.25 36.5625C26.25 36.275 26.325 36.175 26.3625 36.1313C26.425 36.0613 26.5725 35.95 26.9125 35.8512C27.3913 35.7125 28.0088 35.66 28.75 35.64V42.5037H25V45.0037H35V42.5037H31.25V35.5825C32.6275 35.475 33.7437 35.1725 34.5837 34.6313C35.765 33.8687 36.25 32.735 36.25 31.5312C36.2599 30.8884 36.1004 30.2542 35.7875 29.6925C37.1925 28.805 38.1963 27.6025 38.5788 26.2387C38.7663 25.5737 38.1912 25.0037 37.5 25.0037H22.5ZM31.25 33.0725C32.2612 32.975 32.875 32.7575 33.2288 32.53C33.61 32.2838 33.75 31.995 33.75 31.5312C33.75 31.18 33.67 30.9412 33.4637 30.7437C32.7427 30.9648 32.0016 31.1143 31.2512 31.19L31.25 33.0725Z" fill="#0081AB"/>
</svg>
