<svg width="42" height="42" viewBox="0 0 42 42" fill="none" xmlns="http://www.w3.org/2000/svg">
<path d="M27.125 1.75H13.125C11.9647 1.75 10.8519 2.21094 10.0314 3.03141C9.21094 3.85188 8.75 4.96468 8.75 6.125V35.875C8.75 37.0353 9.21094 38.1481 10.0314 38.9686C10.8519 39.7891 11.9647 40.25 13.125 40.25H27.125C28.2853 40.25 29.3981 39.7891 30.2186 38.9686C31.0391 38.1481 31.5 37.0353 31.5 35.875V6.125C31.5 4.96468 31.0391 3.85188 30.2186 3.03141C29.3981 2.21094 28.2853 1.75 27.125 1.75ZM20.125 38.5C18.6725 38.5 17.5 37.3275 17.5 35.875C17.5 34.4225 18.6725 33.25 20.125 33.25C21.5775 33.25 22.75 34.4225 22.75 35.875C22.75 37.3275 21.5775 38.5 20.125 38.5ZM28 31.5H12.25V7H28V31.5Z" fill="#0081AB"/>
</svg>
