<svg width="42" height="42" viewBox="0 0 42 42" fill="none" xmlns="http://www.w3.org/2000/svg">
<path d="M21 21C21.9625 21 22.7867 20.657 23.4727 19.971C24.1588 19.285 24.5012 18.4613 24.5 17.5C24.5 16.5375 24.157 15.7133 23.471 15.0273C22.785 14.3412 21.9613 13.9988 21 14C20.0375 14 19.2133 14.343 18.5273 15.029C17.8412 15.715 17.4988 16.5387 17.5 17.5C17.5 18.4625 17.843 19.2867 18.529 19.9727C19.215 20.6588 20.0387 21.0012 21 21ZM21 38.5C16.3042 34.5042 12.7972 30.793 10.479 27.3665C8.16083 23.94 7.00117 20.7678 7 17.85C7 13.475 8.40758 9.98958 11.2228 7.39375C14.0379 4.79792 17.297 3.5 21 3.5C24.7042 3.5 27.9638 4.79792 30.779 7.39375C33.5942 9.98958 35.0012 13.475 35 17.85C35 20.7667 33.8403 23.9388 31.521 27.3665C29.2017 30.7942 25.6947 34.5053 21 38.5Z" fill="#0081AB"/>
</svg>
