<svg width="25" height="24" viewBox="0 0 25 24" fill="none" xmlns="http://www.w3.org/2000/svg">
<path d="M12.5 14.975C12.3667 14.975 12.2373 14.95 12.112 14.9C11.9867 14.85 11.8827 14.7833 11.8 14.7L7.2 10.1C7.01667 9.91665 6.925 9.68332 6.925 9.39999C6.925 9.11665 7.01667 8.88332 7.2 8.69999C7.38333 8.51665 7.61667 8.42499 7.9 8.42499C8.18333 8.42499 8.41667 8.51665 8.6 8.69999L12.5 12.6L16.4 8.69999C16.5833 8.51665 16.8167 8.42499 17.1 8.42499C17.3833 8.42499 17.6167 8.51665 17.8 8.69999C17.9833 8.88332 18.075 9.11665 18.075 9.39999C18.075 9.68332 17.9833 9.91665 17.8 10.1L13.2 14.7C13.1 14.8 12.9917 14.871 12.875 14.913C12.7583 14.955 12.6333 14.9757 12.5 14.975Z" fill="white"/>
</svg>
