<svg width="70" height="70" viewBox="0 0 70 70" fill="none" xmlns="http://www.w3.org/2000/svg">
<path d="M32.0832 8.75C43.079 8.75 51.9457 17.3542 52.4998 28.175L58.0998 35.5542C58.7998 36.4583 58.0998 37.9167 56.8748 37.9167H52.4998V46.6667C52.4998 49.9042 49.904 52.5 46.6665 52.5H43.7498V61.25H23.3332V47.5708C16.4207 44.3042 11.6665 37.3333 11.6665 29.1667C11.6665 17.9083 20.7665 8.75 32.0832 8.75ZM29.1665 40.8333H34.9998V37.9167H29.1665V40.8333ZM24.4998 27.7083C25.2767 29.0199 26.3826 30.1057 27.7082 30.8583V35H36.4582V30.8583C40.629 28.4375 42.0874 23.1 39.6665 18.9583C37.2457 14.8167 31.879 13.3 27.7082 15.6917C23.5373 18.0833 22.079 23.4792 24.4998 27.7083Z" fill="#0081AB"/>
</svg>
