<svg width="70" height="70" viewBox="0 0 70 70" fill="none" xmlns="http://www.w3.org/2000/svg">
<path d="M34.9998 17.5001C39.6411 17.5001 44.0923 19.3438 47.3742 22.6257C50.6561 25.9076 52.4998 30.3588 52.4998 35.0001C52.4998 41.4751 48.9707 47.1334 43.7498 50.1667V55.4167C43.7498 56.1903 43.4425 56.9322 42.8956 57.4791C42.3486 58.0261 41.6067 58.3334 40.8332 58.3334H29.1665C28.393 58.3334 27.6511 58.0261 27.1041 57.4791C26.5571 56.9322 26.2498 56.1903 26.2498 55.4167V50.1667C21.029 47.1334 17.4998 41.4751 17.4998 35.0001C17.4998 30.3588 19.3436 25.9076 22.6255 22.6257C25.9074 19.3438 30.3585 17.5001 34.9998 17.5001ZM40.8332 61.2501V64.1667C40.8332 64.9403 40.5259 65.6822 39.9789 66.2291C39.4319 66.7761 38.69 67.0834 37.9165 67.0834H32.0832C31.3096 67.0834 30.5678 66.7761 30.0208 66.2291C29.4738 65.6822 29.1665 64.9403 29.1665 64.1667V61.2501H40.8332ZM58.3332 32.0834H67.0832V37.9167H58.3332V32.0834ZM2.9165 32.0834H11.6665V37.9167H2.9165V32.0834ZM37.9165 2.91675V11.6667H32.0832V2.91675H37.9165ZM14.3498 10.2084L20.5623 16.4501L16.4207 20.5626L10.2082 14.3792L14.3498 10.2084ZM49.4373 16.4209L55.6207 10.2084L59.7915 14.3792L53.579 20.5626L49.4373 16.4209Z" fill="#9ABD3D"/>
</svg>
