<svg width="32" height="33" viewBox="0 0 32 33" fill="none" xmlns="http://www.w3.org/2000/svg">
<path d="M16 4.5C8.66669 4.5 2.66669 9.3 2.66669 15.1667C2.66669 17.9667 4.00002 20.6333 6.40002 22.5C6.40002 23.3 5.86669 25.4333 2.66669 28.5C2.66669 28.5 7.33335 28.5 11.3334 25.1667C12.8 25.5667 14.4 25.8333 16 25.8333C23.3334 25.8333 29.3334 21.0333 29.3334 15.1667C29.3334 9.3 23.3334 4.5 16 4.5ZM17.3334 20.5H14.6667V17.8333H17.3334V20.5ZM19.7334 13.8333C19.3334 14.3667 18.8 14.6333 18.2667 14.9C17.8667 15.1667 17.7334 15.3 17.6 15.5667C17.3334 15.8333 17.3334 16.1 17.3334 16.5H14.6667C14.6667 15.8333 14.8 15.4333 15.0667 15.0333C15.3334 14.7667 15.8667 14.3667 16.5334 13.9667C16.9334 13.8333 17.2 13.5667 17.3334 13.3C17.4667 13.0333 17.6 12.6333 17.6 12.3667C17.6 11.9667 17.4667 11.7 17.2 11.4333C16.9334 11.1667 16.5334 11.0333 16.1334 11.0333C15.7334 11.0333 15.4667 11.1667 15.2 11.3C14.9334 11.4333 14.8 11.7 14.8 12.1H12.1334C12.2667 11.1667 12.6667 10.3667 13.3334 9.83333C14 9.3 14.9334 9.16667 16.1334 9.16667C17.3334 9.16667 18.4 9.43333 19.0667 9.96667C19.7334 10.5 20.1334 11.3 20.1334 12.2333C20.2667 12.7667 20.1334 13.3 19.7334 13.8333Z" fill="#9ABD3D"/>
</svg>
