<svg width="137" height="24" viewBox="0 0 137 24" fill="none" xmlns="http://www.w3.org/2000/svg">
<path d="M51.5 9C51.5 4.86 48.14 1.5 44 1.5C39.86 1.5 36.5 4.86 36.5 9C36.5 12.63 39.08 15.6525 42.5 16.35V11.25H41V9H42.5V7.125C42.5 5.6775 43.6775 4.5 45.125 4.5H47V6.75H45.5C45.0875 6.75 44.75 7.0875 44.75 7.5V9H47V11.25H44.75V16.4625C48.5375 16.0875 51.5 12.8925 51.5 9Z" fill="white"/>
<path d="M72 1.125C67.6512 1.125 64.125 4.65117 64.125 9C64.125 13.3488 67.6512 16.875 72 16.875C76.3488 16.875 79.875 13.3488 79.875 9C79.875 4.65117 76.3488 1.125 72 1.125ZM75.7846 7.06113C75.7898 7.14375 75.7898 7.22988 75.7898 7.31426C75.7898 9.89473 73.8246 12.8672 70.2334 12.8672C69.126 12.8672 68.0994 12.5455 67.2346 11.9918C67.3928 12.0094 67.5439 12.0164 67.7057 12.0164C68.6197 12.0164 69.46 11.707 70.1297 11.1832C69.2719 11.1656 68.5512 10.6031 68.3051 9.82969C68.6057 9.87363 68.8764 9.87363 69.1857 9.79453C68.7441 9.70479 68.347 9.46491 68.0622 9.11563C67.7773 8.76636 67.6221 8.32923 67.623 7.87852V7.85391C67.8814 7.9998 68.1855 8.08945 68.5037 8.10176C68.2362 7.92351 68.0169 7.68201 67.8651 7.39869C67.7133 7.11536 67.6338 6.79896 67.6336 6.47754C67.6336 6.11367 67.7285 5.78145 67.899 5.49316C68.3893 6.09668 69.001 6.59029 69.6946 6.94189C70.3881 7.2935 71.1478 7.49523 71.9244 7.53398C71.6484 6.20684 72.6398 5.13281 73.8316 5.13281C74.3941 5.13281 74.9004 5.36836 75.2572 5.74805C75.6984 5.66543 76.1203 5.5002 76.4965 5.27871C76.3506 5.73047 76.0447 6.11191 75.6387 6.35273C76.0324 6.31055 76.4121 6.20156 76.7637 6.04863C76.4982 6.43887 76.166 6.78516 75.7846 7.06113Z" fill="white"/>
<g clip-path="url(#clip0_6_24)">
<path d="M100 0.359985C95.2282 0.359985 91.36 4.22819 91.36 8.99999C91.36 13.7718 95.2282 17.64 100 17.64C104.772 17.64 108.64 13.7718 108.64 8.99999C108.64 4.22819 104.772 0.359985 100 0.359985ZM97.885 12.5811H96.1354V6.95069H97.885V12.5811ZM96.9994 6.25949C96.4468 6.25949 96.0895 5.86798 96.0895 5.38379C96.0895 4.88969 96.4576 4.50989 97.0219 4.50989C97.5862 4.50989 97.9318 4.88969 97.9426 5.38379C97.9426 5.86798 97.5862 6.25949 96.9994 6.25949ZM104.275 12.5811H102.525V9.46079C102.525 8.73449 102.272 8.24129 101.639 8.24129C101.156 8.24129 100.868 8.57519 100.742 8.89649C100.695 9.01079 100.683 9.17279 100.683 9.33389V12.5802H98.9326V8.74619C98.9326 8.04329 98.9101 7.45559 98.8867 6.94979H100.407L100.487 7.73188H100.522C100.752 7.36469 101.317 6.82289 102.261 6.82289C103.412 6.82289 104.275 7.59419 104.275 9.25199V12.5811Z" fill="white"/>
</g>
<g clip-path="url(#clip1_6_24)">
<path d="M128 6C127.204 6 126.441 6.31607 125.879 6.87868C125.316 7.44129 125 8.20435 125 9C125 9.79565 125.316 10.5587 125.879 11.1213C126.441 11.6839 127.204 12 128 12C128.796 12 129.559 11.6839 130.121 11.1213C130.684 10.5587 131 9.79565 131 9C131 8.20435 130.684 7.44129 130.121 6.87868C129.559 6.31607 128.796 6 128 6Z" fill="white"/>
<path fill-rule="evenodd" clip-rule="evenodd" d="M124.4 0C122.968 0 121.594 0.568927 120.582 1.58162C119.569 2.59432 119 3.96783 119 5.4V12.6C119 14.0322 119.569 15.4057 120.582 16.4184C121.594 17.4311 122.968 18 124.4 18H131.6C133.032 18 134.406 17.4311 135.418 16.4184C136.431 15.4057 137 14.0322 137 12.6V5.4C137 3.96783 136.431 2.59432 135.418 1.58162C134.406 0.568927 133.032 0 131.6 0L124.4 0ZM123.8 9C123.8 7.88609 124.242 6.8178 125.03 6.03015C125.818 5.2425 126.886 4.8 128 4.8C129.114 4.8 130.182 5.2425 130.97 6.03015C131.758 6.8178 132.2 7.88609 132.2 9C132.2 10.1139 131.758 11.1822 130.97 11.9698C130.182 12.7575 129.114 13.2 128 13.2C126.886 13.2 125.818 12.7575 125.03 11.9698C124.242 11.1822 123.8 10.1139 123.8 9ZM132.2 4.8H133.4V3.6H132.2V4.8Z" fill="white"/>
</g>
<defs>
<clipPath id="clip0_6_24">
<rect width="18" height="18" fill="white" transform="translate(91)"/>
</clipPath>
<clipPath id="clip1_6_24">
<rect width="18" height="18" fill="white" transform="translate(119)"/>
</clipPath>
</defs>
</svg>
