<svg width="70" height="70" viewBox="0 0 70 70" fill="none" xmlns="http://www.w3.org/2000/svg">
<path fill-rule="evenodd" clip-rule="evenodd" d="M35.0002 46.6666C40.415 46.6666 45.6081 44.5155 49.4369 40.6867C53.2658 36.8578 55.4168 31.6648 55.4168 26.2499C55.4168 20.8351 53.2658 15.642 49.4369 11.8132C45.6081 7.98429 40.415 5.83325 35.0002 5.83325C29.5853 5.83325 24.3923 7.98429 20.5634 11.8132C16.7345 15.642 14.5835 20.8351 14.5835 26.2499C14.5835 31.6648 16.7345 36.8578 20.5634 40.6867C24.3923 44.5155 29.5853 46.6666 35.0002 46.6666ZM35.0002 17.4999C34.1718 17.4999 33.6177 18.4916 32.5093 20.4837L32.2235 20.997C31.9085 21.5628 31.751 21.8428 31.506 22.0295C31.2581 22.2162 30.9518 22.2862 30.3393 22.4233L29.7852 22.5516C27.6327 23.0387 26.5564 23.2808 26.2997 24.1033C26.0431 24.9287 26.7781 25.7862 28.2452 27.5012L28.6243 27.9445C29.0414 28.4316 29.2514 28.6737 29.3447 28.977C29.4381 29.2803 29.406 29.6041 29.3447 30.2545L29.2864 30.8466C29.0647 33.1362 28.9539 34.2824 29.6218 34.7899C30.2927 35.2974 31.3018 34.8337 33.3172 33.9062L33.8364 33.667C34.411 33.4045 34.6968 33.2733 35.0002 33.2733C35.3035 33.2733 35.5893 33.4045 36.1639 33.667L36.6831 33.9062C38.6985 34.8366 39.7077 35.2974 40.3785 34.7899C41.0493 34.2824 40.9356 33.1362 40.7139 30.8466L40.6556 30.2545C40.5943 29.6041 40.5622 29.2803 40.6556 28.977C40.7489 28.6766 40.9589 28.4316 41.376 27.9445L41.7552 27.5012C43.2222 25.7862 43.9572 24.9287 43.7006 24.1033C43.4439 23.2808 42.3677 23.0387 40.2152 22.5516L39.661 22.4233C39.0485 22.2862 38.7422 22.2191 38.4943 22.0295C38.2493 21.8428 38.0918 21.5628 37.7768 20.997L37.491 20.4837C36.3827 18.4916 35.8285 17.4999 35.0002 17.4999Z" fill="#9ABD3D"/>
<path d="M20.688 46.4944L19.5826 50.5252C17.7509 57.2102 16.8351 60.5527 18.0572 62.3815C18.4859 63.0231 19.0605 63.5365 19.7284 63.8777C21.6301 64.846 24.5701 63.3148 30.4472 60.2523C32.4013 59.2315 33.3813 58.724 34.4197 58.6131C34.8055 58.5718 35.1946 58.5718 35.5805 58.6131C36.6188 58.724 37.5959 59.2344 39.553 60.2523C45.4301 63.3148 48.3701 64.846 50.2717 63.8777C50.9397 63.5365 51.5142 63.0231 51.943 62.3815C53.168 60.5527 52.2492 57.2102 50.4176 50.5252L49.3122 46.4944C45.1297 49.4601 40.1273 51.0494 35.0001 51.0415C29.8728 51.0496 24.8704 49.4602 20.688 46.4944Z" fill="#9ABD3D"/>
</svg>
